<?xml version="1.0" standalone="no"?><svg xmlns="http://www.w3.org/2000/svg" viewBox="0 0 1440 320"><path fill="#ab393e" fill-opacity="1" d="M0,256L40,240C80,224,160,192,240,186.7C320,181,400,203,480,213.3C560,224,640,224,720,197.3C800,171,880,117,960,106.7C1040,96,1120,128,1200,160C1280,192,1360,224,1400,240L1440,256L1440,320L1400,320C1360,320,1280,320,1200,320C1120,320,1040,320,960,320C880,320,800,320,720,320C640,320,560,320,480,320C400,320,320,320,240,320C160,320,80,320,40,320L0,320Z"></path></svg>